<svg width="19" height="18" viewBox="0 0 19 18" fill="none" xmlns="http://www.w3.org/2000/svg">
<path d="M9.01123 1.622C11.4142 1.622 11.6992 1.631 12.6482 1.674C13.2185 1.68133 13.7833 1.78618 14.3182 1.984C14.7066 2.13359 15.0593 2.36285 15.3536 2.65702C15.6479 2.9512 15.8774 3.30376 16.0272 3.692C16.2252 4.227 16.3302 4.792 16.3372 5.363C16.3802 6.313 16.3892 6.597 16.3892 9C16.3892 11.403 16.3802 11.688 16.3372 12.637C16.3299 13.2073 16.2251 13.7721 16.0272 14.307C15.8776 14.6953 15.6484 15.048 15.3542 15.3424C15.06 15.6367 14.7075 15.8662 14.3192 16.016C13.784 16.2139 13.2188 16.3188 12.6482 16.326C11.6982 16.369 11.4142 16.378 9.01123 16.378C6.60823 16.378 6.32323 16.369 5.37423 16.326C4.80396 16.3187 4.23914 16.2138 3.70423 16.016C3.3159 15.8664 2.96321 15.6371 2.66886 15.343C2.37451 15.0488 2.14505 14.6962 1.99523 14.308C1.7973 13.7728 1.69245 13.2076 1.68523 12.637C1.64223 11.687 1.63323 11.403 1.63323 9C1.63323 6.597 1.64223 6.312 1.68523 5.363C1.69256 4.79273 1.79741 4.22791 1.99523 3.693C2.14482 3.30467 2.37408 2.95197 2.66825 2.65763C2.96243 2.36328 3.31499 2.13382 3.70323 1.984C4.23846 1.78607 4.80362 1.68122 5.37423 1.674C6.32423 1.631 6.60823 1.622 9.01123 1.622ZM9.01123 0C6.56723 0 6.26123 0.0099999 5.30123 0.0539999C4.55443 0.069018 3.81561 0.210697 3.11623 0.473C2.51817 0.704001 1.97499 1.05747 1.52156 1.51073C1.06813 1.96399 0.714459 2.50702 0.48323 3.105C0.22138 3.80412 0.0800411 4.5426 0.0652304 5.289C0.0212304 6.25 0.0112305 6.556 0.0112305 9C0.0112305 11.444 0.0212304 11.75 0.0652304 12.71C0.0802304 13.457 0.222231 14.196 0.484231 14.895C0.715232 15.4931 1.0687 16.0362 1.52196 16.4897C1.97522 16.9431 2.51825 17.2968 3.11623 17.528C3.81523 17.789 4.55423 17.931 5.30023 17.946C6.26123 17.99 6.56723 18 9.01123 18C11.4552 18 11.7612 17.99 12.7212 17.946C13.468 17.931 14.2069 17.7893 14.9062 17.527C15.5043 17.296 16.0475 16.9425 16.5009 16.4893C16.9543 16.036 17.308 15.493 17.5392 14.895C17.8002 14.196 17.9422 13.457 17.9572 12.711C18.0012 11.751 18.0112 11.444 18.0112 9C18.0112 6.556 18.0012 6.25 17.9572 5.29C17.9422 4.5432 17.8005 3.80438 17.5382 3.105C17.3072 2.50694 16.9538 1.96376 16.5005 1.51033C16.0472 1.0569 15.5042 0.703228 14.9062 0.472C14.2071 0.21015 13.4686 0.0688107 12.7222 0.0539999C11.7612 0.0099999 11.4552 0 9.01123 0ZM9.01123 4.378C8.39861 4.36899 7.7903 4.48187 7.2217 4.71008C6.65309 4.93828 6.13554 5.27726 5.69912 5.7073C5.26271 6.13734 4.91616 6.64986 4.67961 7.21505C4.44306 7.78023 4.32125 8.38681 4.32125 8.9995C4.32125 9.61219 4.44306 10.2188 4.67961 10.784C4.91616 11.3491 5.26271 11.8617 5.69912 12.2917C6.13554 12.7217 6.65309 13.0607 7.2217 13.2889C7.7903 13.5171 8.39861 13.63 9.01123 13.621C10.2252 13.6031 11.3833 13.1084 12.2354 12.2436C13.0876 11.3789 13.5652 10.2136 13.5652 8.9995C13.5652 7.78544 13.0876 6.62013 12.2354 5.75538C11.3833 4.89062 10.2252 4.39586 9.01123 4.378ZM9.01123 12C8.61272 12.0073 8.21676 11.9351 7.84647 11.7876C7.47618 11.6401 7.13899 11.4203 6.85459 11.1411C6.5702 10.8618 6.3443 10.5287 6.19009 10.1612C6.03588 9.79365 5.95646 9.39907 5.95646 9.0005C5.95646 8.60192 6.03588 8.20735 6.19009 7.83981C6.3443 7.47228 6.5702 7.13915 6.85459 6.8599C7.13899 6.58065 7.47618 6.36087 7.84647 6.2134C8.21676 6.06593 8.61272 5.99372 9.01123 6.001C9.79726 6.01535 10.5463 6.33768 11.0971 6.89863C11.6479 7.45959 11.9565 8.21434 11.9565 9.0005C11.9565 9.78666 11.6479 10.5414 11.0971 11.1024C10.5463 11.6633 9.79726 11.9856 9.01123 12ZM13.8152 3.116C13.5288 3.116 13.2541 3.22979 13.0516 3.43232C12.849 3.63486 12.7352 3.90957 12.7352 4.196C12.7352 4.48243 12.849 4.75714 13.0516 4.95968C13.2541 5.16221 13.5288 5.276 13.8152 5.276C14.1017 5.276 14.3764 5.16221 14.5789 4.95968C14.7814 4.75714 14.8952 4.48243 14.8952 4.196C14.8952 3.90957 14.7814 3.63486 14.5789 3.43232C14.3764 3.22979 14.1017 3.116 13.8152 3.116Z" fill="#AAAABF"/>
</svg>
